<svg id="Layer_1" data-name="Layer 1" xmlns="http://www.w3.org/2000/svg" viewBox="0 0 1920 1080"><defs><style>.cls-1{fill:#2acddd;}</style></defs><path class="cls-1" d="M801.46,530.52,795.13,547a3.25,3.25,0,0,1-3,2.09H770.7a3.26,3.26,0,0,1-3-4.53L810.77,442.6a3.26,3.26,0,0,1,3-2h21.37a3.24,3.24,0,0,1,3,2l42.93,101.95a3.26,3.26,0,0,1-3,4.53H856.65a3.25,3.25,0,0,1-3-2.07l-6.48-16.49Zm22.84-58.67-13.95,35.84h27.91Z"/><path class="cls-1" d="M1006,474.7H985.31a3.27,3.27,0,0,1-3.14-2.39c-2-6.77-7.07-11.25-16.89-11.25-9.2,0-15.39,3.81-15.39,10.79,0,5.87,4.28,8.4,12.37,10.15l15.07,3.49c19.66,4.28,32.51,12.21,32.51,30.76,0,21.57-17.76,35-44.72,35-23.06,0-44-10.32-48.17-34.21a3.27,3.27,0,0,1,3.21-3.85h20.57a3.23,3.23,0,0,1,3.07,2.3c2.58,8.13,10.48,12.92,22.11,12.92,10,0,15.22-3.65,15.22-9.51,0-3.65-2.22-7.46-11.41-9.2l-17.77-4c-21.25-4.6-31.24-14.59-31.24-31.72,0-21.57,17.45-35.21,42.82-35.21,16.65,0,41.09,6.21,45.64,32A3.27,3.27,0,0,1,1006,474.7Z"/><path class="cls-1" d="M1152.31,549.08h-20.12a3.26,3.26,0,0,1-3.26-3.26V508.64H1085v37.18a3.26,3.26,0,0,1-3.26,3.26h-20.28a3.26,3.26,0,0,1-3.26-3.26V444.5a3.26,3.26,0,0,1,3.26-3.26h20.28a3.26,3.26,0,0,1,3.26,3.26v40h43.93v-40a3.26,3.26,0,0,1,3.26-3.26h20.12a3.26,3.26,0,0,1,3.26,3.26V545.82A3.26,3.26,0,0,1,1152.31,549.08Z"/><path class="cls-1" d="M1098.05,679.46H832.4a20.73,20.73,0,0,1-20.73-20.72V571.4a3,3,0,0,1,3-3h18.5a3,3,0,0,1,3,3V655h258.23V571.39a3,3,0,0,1,3-3h18.51a3,3,0,0,1,3,3v87.35A20.72,20.72,0,0,1,1098.05,679.46Z"/><path class="cls-1" d="M833.33,416.52a3,3,0,0,0,2.94-2.84C839.05,353.8,890,297.82,962.18,276.32a7.78,7.78,0,0,1,4.48-.05c34.37,10.21,64.68,28.16,87.65,51.89,24.42,25.22,38.43,55.41,39.86,85.53a3,3,0,0,0,2.94,2.83h18.52a3,3,0,0,0,3-3.08c-1.48-36.38-17.93-72.51-46.75-102.28-25.89-26.74-59.86-46.91-98.25-58.32a32.27,32.27,0,0,0-18.42.06c-82.41,24.55-140.58,90-143.41,160.54a3,3,0,0,0,3,3.08Z"/><path class="cls-1" d="M879.61,749.65l-3.49-8.74h-19.6L853,749.65h-5.61l15.82-39.38h6.09l15.87,39.38Zm-13.29-34.3-8.38,21.19h16.71Z"/><path class="cls-1" d="M890.47,749.65V710.27h4.42v39.38Z"/><path class="cls-1" d="M902.86,749.65V710.27h4.43v39.38Z"/><path class="cls-1" d="M929.78,744.1l2.89-3.72a16.66,16.66,0,0,0,12.4,5.61c7,0,9.27-3.78,9.27-6.79,0-10.15-23.32-4.55-23.32-18.6,0-6.49,5.79-10.92,13.52-10.92,6,0,10.68,2,14,5.49l-2.95,3.6a15.09,15.09,0,0,0-11.39-4.72c-4.73,0-8.09,2.54-8.09,6.26,0,8.85,23.32,3.78,23.32,18.48,0,5.72-3.9,11.57-14.53,11.57C938.05,750.36,933,747.76,929.78,744.1Z"/><path class="cls-1" d="M984.68,749.65V746.4a12.33,12.33,0,0,1-9.44,4c-4.85,0-10-3.25-10-9.45,0-6.37,5.13-9.38,10-9.38,3.89,0,7.14,1.24,9.44,3.89v-5.13c0-3.84-3.07-6-7.2-6a11.32,11.32,0,0,0-8.74,4l-2.06-3.07a14.91,14.91,0,0,1,11.39-4.72c6,0,11,2.71,11,9.62v19.6Zm0-6v-5.37a9.52,9.52,0,0,0-7.85-3.55c-4.13,0-7,2.6-7,6.26s2.9,6.2,7,6.2A9.54,9.54,0,0,0,984.68,743.63Z"/><path class="cls-1" d="M996.31,714.11a3,3,0,1,1,6,0,3,3,0,0,1-6,0Zm.77,35.54V721.14h4.42v28.51Z"/><path class="cls-1" d="M1028.72,749.65V731c0-5-2.54-6.61-6.38-6.61a11,11,0,0,0-8.44,4.43v20.84h-4.43V721.14h4.43v4.13a14.15,14.15,0,0,1,10.15-4.84c6,0,9.09,3,9.09,9.21v20Z"/><path class="cls-1" d="M1042,743.69V725h-4.72v-3.89H1042v-7.8h4.43v7.8h5.78V725h-5.78v17.71c0,2.13.94,3.66,2.89,3.66a4.27,4.27,0,0,0,3-1.18l1.3,3.31a7.25,7.25,0,0,1-5.31,1.83C1044.12,750.36,1042,747.94,1042,743.69Z"/><path class="cls-1" d="M1056.28,745.87l2.31-3.19a12.9,12.9,0,0,0,9.38,4.08c4.37,0,6.73-2.07,6.73-4.9,0-6.91-17.65-2.66-17.65-13.23,0-4.42,3.84-8.2,10.63-8.2a14.42,14.42,0,0,1,10.56,4.13l-2.06,3.07a11.09,11.09,0,0,0-8.5-3.6c-3.9,0-6.32,2-6.32,4.49,0,6.25,17.65,2.12,17.65,13.22,0,4.78-3.84,8.62-11.21,8.62C1063.13,750.36,1059.18,748.94,1056.28,745.87Z"/><path class="cls-1" d="M847.17,812.09V794h-23v18.07h-4.9V772.71h4.9v16.94h23V772.71h4.9v39.38Z"/><path class="cls-1" d="M859.45,776.55a3,3,0,1,1,6,0,3,3,0,0,1-6,0Zm.76,35.54V783.57h4.43v28.52Z"/><path class="cls-1" d="M872.55,819.41l2.24-3.31c2.37,2.83,5.2,3.9,9.27,3.9,4.73,0,9.15-2.31,9.15-8.56v-4.08a11.88,11.88,0,0,1-9.56,5.08c-7.44,0-12.69-5.55-12.69-14.76s5.19-14.82,12.69-14.82a11.8,11.8,0,0,1,9.56,5v-4.31h4.43v27.69c0,9.44-6.61,12.4-13.58,12.4C879.22,823.66,875.92,822.71,872.55,819.41Zm20.66-15.53V791.42a10.52,10.52,0,0,0-8.5-4.6c-5.72,0-9.15,4.55-9.15,10.86s3.43,10.86,9.15,10.86A10.54,10.54,0,0,0,893.21,803.88Z"/><path class="cls-1" d="M924.91,812.09V793.31c0-5-2.6-6.49-6.43-6.49a11.2,11.2,0,0,0-8.44,4.43v20.84h-4.43V772.71H910v15a14.12,14.12,0,0,1,10.21-4.85c6,0,9.09,2.9,9.09,9.1v20.13Z"/><path class="cls-1" d="M935.65,797.8c0-8.26,5.91-14.94,14.05-14.94,8.62,0,13.7,6.73,13.7,15.29v1.13H940.32c.35,5.37,4.13,9.85,10.27,9.85a12.45,12.45,0,0,0,8.8-3.6l2.12,2.9a15.49,15.49,0,0,1-11.33,4.36C941.73,812.79,935.65,806.71,935.65,797.8Zm14-11.28c-6.09,0-9.1,5.14-9.33,9.51H959C959,791.78,956.14,786.52,949.65,786.52Z"/><path class="cls-1" d="M969.66,812.09V783.57h4.42v4.61c2.31-3,5.61-5.2,9.51-5.2v4.55a7.66,7.66,0,0,0-1.77-.18,10.42,10.42,0,0,0-7.74,4.55v20.19Z"/><path class="cls-1" d="M991.5,806.12V787.47h-4.73v-3.9h4.73v-7.79h4.42v7.79h5.79v3.9h-5.79v17.71c0,2.12,1,3.66,2.9,3.66a4.27,4.27,0,0,0,3-1.18l1.3,3.3a7.23,7.23,0,0,1-5.32,1.83C993.62,812.79,991.5,810.37,991.5,806.12Z"/><path class="cls-1" d="M1006.61,797.8c0-8.26,5.43-14.94,14.11-14.94s14.11,6.68,14.11,14.94-5.43,15-14.11,15S1006.61,806.06,1006.61,797.8Zm23.55,0c0-5.79-3.36-11-9.44-11s-9.51,5.19-9.51,11,3.43,11,9.51,11S1030.16,803.64,1030.16,797.8Z"/><path class="cls-1" d="M1067,812.09l-7.44-22.91-7.44,22.91h-4.43l-9.09-28.52h4.61l7,22.73,7.5-22.73h3.78l7.5,22.73,7-22.73h4.61l-9.09,28.52Z"/><path class="cls-1" d="M1105.19,812.09V793.43c0-5-2.54-6.61-6.37-6.61a11,11,0,0,0-8.45,4.43v20.84H1086V783.57h4.42v4.14a14.14,14.14,0,0,1,10.16-4.85c6,0,9.09,3,9.09,9.21v20Z"/></svg>