<svg xmlns="http://www.w3.org/2000/svg" viewBox="0 0 97.32 110.12"><defs><style>.cls-1,.cls-2{fill:none;stroke:#2acddd;stroke-linecap:round;stroke-width:5.95px;}.cls-2{stroke-linejoin:round;}</style></defs><g id="Layer_2" data-name="Layer 2"><g id="Layer_1-2" data-name="Layer 1"><path class="cls-1" d="M43.74,96.91c-3.47.61-14.74,3.76-17-.11a11.26,11.26,0,0,1-1.11-4.41C24.41,82.77,20.68,74,17,65.16Q12.46,54.41,7.55,43.82C4.68,37.64,1.22,30.93,4,24c1.2-2.9,3.8-4.09,6.59-5.12,5-1.85,10.11-3.55,15.21-5.16l3.75-1.16q13.5-4.1,27.27-7.16c3.43-.77,9.21-3.4,12.64-2,2.71,1.08,4.43,4.75,5.62,7.16,2.9,5.87,4.65,12.29,6.34,18.59,2.79,10.25,5.12,20.38,9.15,30.22,4.27,10.39,7.77,23.75-6.2,27.4L66.71,92.42"/><path class="cls-1" d="M91.27,64.36c-9.08,2.3-15.4,4.1-24.38,6.8-14.2,4.26-28.31,9-41.53,15.76"/><path class="cls-2" d="M52.4,20.93a37,37,0,0,0,2.48,7.9,24.3,24.3,0,0,0,8.73-2l3.1,10.92-7.14.88L63,53,51.82,56.06A56.9,56.9,0,0,1,47.74,43l-8.23,1.33a37.53,37.53,0,0,0-3-9.6l8.2-3.29a22.1,22.1,0,0,0-1.08-3.39c-.23-.58-.49-1.16-.77-1.73a5.16,5.16,0,0,1-.72-1.52c-.06-1.05,1.6-1.14,2.31-1.32,1.28-.33,2.54-.69,3.79-1.09S51,21.46,52.4,20.93Z"/><path class="cls-1" d="M14.47,17.56C22.91,38.21,30.93,58.39,36.53,80"/><path class="cls-2" d="M49.33,107.15l4.49-11q5.4,3.58,10.53,7.57c.41-4.32-.8-8.62-2-12.8l-1.87-6.5a1.32,1.32,0,0,0-.32-.66c-.35-.34-.92-.23-1.38-.1-4.53,1.26-9,2.63-13.49,4.06-.8.26-1.91.32-1.72,1.35a30.64,30.64,0,0,0,1.09,3.45l2.18,6.84Z"/></g></g></svg>