<svg xmlns="http://www.w3.org/2000/svg" viewBox="0 0 109.79 92.16"><defs><style>.cls-1{fill:#95c623;}</style></defs><g id="Layer_2" data-name="Layer 2"><g id="Layer_1-2" data-name="Layer 1"><path class="cls-1" d="M5.82,89.35l.41-21.71c0-1.69,0-3.39.1-5.07a3.43,3.43,0,0,1,1.16-2.92,12.73,12.73,0,0,1,2.82-1.38l5.31-2.13,39.91-16,19.85-8c3.13-1.25,6.25-2.73,9.46-3.77.41-.14,1.17-.2.16-.51-.17-.05,0-.52,0,.25,0-.38,0,.76,0,.64.09,1.81.13,3.64.2,5.46L86,55.58c.24,6.65.63,13.31.7,20,0,2.67.23,5.57-.81,8-.45,1-1.07,1.13-2.2,1.21q-3,.2-5.91.31-12.07.51-24.16,0L56.56,88c-.32-5.38-.52-10.77-.83-16.15-.08-1.52-.19-3.09-1.27-4.27a5.26,5.26,0,0,0-4.32-1.41,82.31,82.31,0,0,0-10.16,1A2.93,2.93,0,0,0,37.84,70l.69,13.2c0,1,.16,2.09.15,3.13,0,.38,0,.46,0,.24-.14.4-.13.43,0,.1a.7.7,0,0,1,.52-.48c-.35.1-.44.12-.27,0a21.47,21.47,0,0,0-3.21,0l-3.24-.06L5.35,85.66c-3.75-.06-3.75,5.75,0,5.82L35.51,92c2.3,0,4.91.41,6.88-1s2.16-3.81,2-6.08L43.66,70l-2.14,2.8A70.89,70.89,0,0,1,49.2,72c.25,0,1.61.11,1.75-.06-.11.13-1-1-1.1-1,0-.19,0-.19,0,0s0,.22,0,.33c.08,1,.12,2.1.17,3.16.24,4.5.43,9,.69,13.52a3,3,0,0,0,2.91,2.91q11.58.44,23.17,0c1.81-.07,3.61-.16,5.42-.26s3.93-.12,5.68-1c3.15-1.61,4-5.31,4.41-8.53A56.4,56.4,0,0,0,92.49,73l-.42-11.42-.86-23.35L91,32.73a45.07,45.07,0,0,0-.33-5.81A5.39,5.39,0,0,0,88,23,6.43,6.43,0,0,0,82.6,23c-7.27,2.82-14.46,5.81-21.69,8.71L18,49c-3.92,1.57-7.94,3-11.78,4.77A10,10,0,0,0,1.92,57.2,11,11,0,0,0,.5,63C.23,71.77.17,80.56,0,89.35c-.07,3.74,5.75,3.74,5.82,0Z"/><path class="cls-1" d="M26.32,47.4c-.18-4.27-.27-8.55-.2-12.83,0-2.23.11-4.47.21-6.7,0-.66-.15-1.82.24-2.39,0,0-.05.12.14,0a8.64,8.64,0,0,1,1.31-.7q12.57-6.21,25.15-12.39l14.24-7L63.14,3.62a94,94,0,0,1,.62,26.69c-.18,1.57,1.47,2.91,2.91,2.91a3,3,0,0,0,2.91-2.91,99,99,0,0,0-.83-28.24C68.41.09,66-.42,64.47.33L38,13.38c-4.43,2.18-8.88,4.32-13.29,6.55a6.69,6.69,0,0,0-3.92,4.77,48.82,48.82,0,0,0-.42,7.16c-.15,5.18-.08,10.36.14,15.54a3,3,0,0,0,2.91,2.91,2.94,2.94,0,0,0,2.91-2.91Z"/><path class="cls-1" d="M81.74,90.62c7.61.34,15.25-.21,22.87,0a4.37,4.37,0,0,0,4.13-1.8c.85-1.34.75-3.07.82-4.59.15-3.08.2-6.17.21-9.26,0-5.71.07-11.43-.2-17.14a114.39,114.39,0,0,0-2.34-17.47,2.93,2.93,0,0,0-2.81-2.14l-14.25,1a3,3,0,0,0-2.91,2.91A2.93,2.93,0,0,0,90.17,45l14.25-1L101.62,42a109,109,0,0,1,2.26,20.17c.07,4.06.08,8.13.08,12.2,0,2.07,0,4.14-.08,6.2,0,1.09-.07,2.19-.12,3.28,0,.47,0,1-.07,1.43,0,.33,0,.65,0,1a1.51,1.51,0,0,1,.58-1l1.47-.4a44,44,0,0,1-5.26,0c-2.25,0-4.49,0-6.74,0-4,0-8,.15-12,0a2.91,2.91,0,1,0,0,5.82Z"/></g></g></svg>