<svg xmlns="http://www.w3.org/2000/svg" xmlns:xlink="http://www.w3.org/1999/xlink" width="502" height="68" viewBox="0 0 502 68">
  <defs>
    <clipPath id="clip-Artboard_10">
      <rect width="502" height="68"/>
    </clipPath>
  </defs>
  <g id="Artboard_10" data-name="Artboard – 10" clip-path="url(#clip-Artboard_10)">
    <rect width="502" height="68" fill="rgba(255,255,255,0)"/>
    <g id="Group_3" data-name="Group 3" transform="translate(-120 -195)">
      <path id="Path_69" data-name="Path 69" d="M325.08,568v10.209c0,.631,1.246,1.143,2.782,1.143H811.143c1.533,0,2.774-.513,2.782-1.143V568" transform="translate(-200.008 -326.046)" fill="none" stroke="#2acddd" stroke-linecap="round" stroke-miterlimit="10" stroke-width="5.18"/>
      <text id="All_Saints_Highertown" data-name="All Saints Highertown" transform="translate(130 249)" fill="#fff" font-size="36" font-family="NunitoSans-ExtraBold, Nunito Sans" font-weight="800"><tspan x="0" y="0">All Saints Highertown</tspan></text>
      <g id="Layer_2" data-name="Layer 2" transform="translate(516.823 198.877)">
        <g id="Layer_1" data-name="Layer 1" transform="translate(0 0)">
          <path id="Path_81" data-name="Path 81" d="M4.019,65.128l-.063-14c0-1.073,0-2.152.063-3.219a2.178,2.178,0,0,1,.736-1.854,8.082,8.082,0,0,1,1.79-.876l3.371-1.352L35.255,33.665l12.6-5.079c1.987-.794,3.968-1.733,6.006-2.393.007,0-1.123.328-.119,0,.068-.144.623.191,0,0-.108-.032.221-.084.221.405v-.164c.057,1.149.083,2.311.127,3.466L54.6,43.467c.152,4.222.4,8.45.444,12.7,0,1.7.146,3.536-.514,5.079-.286.635-.679.717-1.4.768q-1.9.127-3.752.2c-5.109.216-8.434.208-13.551-.008v.69c-.2-3.416-.251-5.678-.448-9.094a4.1,4.1,0,0,0-.806-2.711,3.339,3.339,0,0,0-2.743-.9,52.256,52.256,0,0,0-6.45.635,1.86,1.86,0,0,0-1.359,1.8L24.462,61c0,.635.1,1.238.1,1.9a6.447,6.447,0,0,1-.051-.758c-.089.254-.031.666.051.456.047-.154-.252-4.226-.1-4.26-.222.063.568,4.514-.924,4.562a2.443,2.443,0,0,0-.86,0l-2.057-.038L4.331,62.6c-1.007-.016-.451.442-.637,1.419C3.74,65.332.9,66.564,2.269,66.59H22.544c1.46,0,2.119.311,3.37-.584s1.1-3.561,1-5c0,0-1.077-7.133-1-7.206s0,.286,0,.286a53.214,53.214,0,0,1,5.321-.191c.159,0,.432.3.521.191-.07.083-.171-.229-.234-.229,0-.121.123.219.123.339v-.339c.051.635.079.908.111,1.581.152,2.857.273,5.714.438,8.584a1.9,1.9,0,0,0,1.847,1.847c2.24.085,4.48.131,7.023.139,2.36.008,5.023-.038,7.687-.139,1.149-.044,2.482.063,3.631,0a8.449,8.449,0,0,0,3.416-.8c2-1.022,2.54-3.371,2.8-5.416a35.807,35.807,0,0,0,.121-5.123l-.267-7.25-.546-14.824-.133-3.492a28.614,28.614,0,0,0-.21-3.689,3.422,3.422,0,0,0-1.7-2.489,4.082,4.082,0,0,0-3.428,0c-4.616,1.79-9.18,3.689-13.771,5.53L11.428,39.29c-2.489,1-5.041,1.9-7.479,3.028A6.349,6.349,0,0,0,1.219,44.5a6.984,6.984,0,0,0-.9,3.682C.146,53.746.108,59.327,0,64.907-.045,67.282,3.974,67.5,4.019,65.128Z" transform="translate(0.001 -8.181)" fill="none" stroke="#fff" stroke-width="4"/>
          <path id="Path_82" data-name="Path 82" d="M23.969,28.071c-.114-2.711-.044-3.406,0-6.123,0-1.416.07-2.838.133-4.254a3.122,3.122,0,0,1,.152-1.517,3.674,3.674,0,0,0,.5-.2,1.449,1.449,0,0,1,.418-.242q7.98-3.943,15.967-7.866l6.723-3.093h0c.937,5.6.634,8.306-.041,13.944-.114,1,.682.518,2.277-.2,2.045-1.006,1.677-.381,1.707-1.389.682-5.971.258-9.9-.774-15.817A1.872,1.872,0,0,0,48.317.21L31.512,8.495c-2.813,1.384-5.638,2.743-8.438,4.158a4.247,4.247,0,0,0-2.489,3.028,31,31,0,0,0-.267,4.546c-.1,3.289-.14,6.085,0,9.373.03,1.008.374.663,2.526,0,1.92-.9,1.12-.514,1.131-1.53Z" transform="translate(-7.386 -0.001)" fill="none" stroke="#fff" stroke-width="4"/>
          <path id="Path_83" data-name="Path 83" d="M80.677,71.488c4.831.216,9.682-.133,14.52,0a2.774,2.774,0,0,0,2.622-1.143,5.85,5.85,0,0,0,.521-2.914c.1-1.955.127-3.917.133-5.879,0-3.625.044-7.257-.127-10.882a72.624,72.624,0,0,0-1.486-11.091,1.86,1.86,0,0,0-1.784-1.359H86.341c-1.008.03.4,1.432.37,2.44.021,1.008-1.378,1.8-.37,1.806L93.2,41.89h0a56.482,56.482,0,0,1,1.534,11.536c.044,2.578.051,5.162.051,7.746,0,1.314,0,2.628-.051,3.936,0,.692-.044,1.39-.076,2.082a6.041,6.041,0,0,1-.044.908v.27c.034-.252-.2-.836,0-.99v.466h0a10.42,10.42,0,0,1-2.038,0H88.3c-2.54,0-5.079.1-7.619,0a1.847,1.847,0,1,0,0,3.695Z" transform="translate(-28.782 -13.955)" fill="none" stroke="#fff" stroke-width="4"/>
        </g>
      </g>
    </g>
  </g>
</svg>
